<?xml version="1.0" encoding="utf-8"?>
<!-- Generator: Adobe Illustrator 23.0.3, SVG Export Plug-In . SVG Version: 6.00 Build 0)  -->
<svg version="1.1" id="Layer_1" xmlns="http://www.w3.org/2000/svg" xmlns:xlink="http://www.w3.org/1999/xlink" x="0px" y="0px"
	 viewBox="0 0 926.69 166.65" style="enable-background:new 0 0 926.69 166.65;" xml:space="preserve">
<style type="text/css">
	.st0{fill:#0097EE;}
	.st1{fill:#00CA98;}
	.st2{fill:#EE5700;}
</style>
<g>
	<path class="st0" d="M24.6,128.7H10.8V21.3h36.6c9.3,0,17.22,3.07,23.77,9.23C77.72,36.68,81,44.25,81,53.25
		c0,7.4-2.43,13.98-7.27,19.73C68.87,78.73,62.75,82.4,55.35,84l-0.3,0.45L85.2,128.1v0.6H68.85L39.9,85.2H24.6V128.7z M24.6,34.5
		v37.8h22.2c5.6,0,10.35-1.82,14.25-5.48c3.9-3.65,5.85-8.17,5.85-13.58c0-5-1.83-9.38-5.48-13.13c-3.65-3.75-8.23-5.63-13.72-5.63
		H24.6z"/>
	<path class="st0" d="M126.6,131.1c-10.8,0-19.7-3.7-26.7-11.1c-7-7.4-10.5-16.75-10.5-28.05c0-11.2,3.4-20.52,10.2-27.98
		c6.8-7.45,15.5-11.17,26.1-11.17c10.9,0,19.58,3.52,26.02,10.57c6.45,7.05,9.68,16.93,9.68,29.63l-0.15,1.5H103.5
		c0.2,7.2,2.6,13,7.2,17.4c4.6,4.4,10.1,6.6,16.5,6.6c8.8,0,15.7-4.4,20.7-13.2l12.3,6c-3.3,6.2-7.88,11.05-13.73,14.55
		C140.62,129.35,134,131.1,126.6,131.1z M104.55,83.1h42.15c-0.4-5.1-2.48-9.32-6.23-12.67c-3.75-3.35-8.77-5.02-15.07-5.02
		c-5.2,0-9.68,1.6-13.43,4.8C108.22,73.4,105.75,77.7,104.55,83.1z"/>
	<path class="st0" d="M231,108.3c0,6.4-2.8,11.8-8.4,16.2c-5.6,4.4-12.65,6.6-21.15,6.6c-7.4,0-13.9-1.93-19.5-5.77
		c-5.6-3.85-9.6-8.92-12-15.23l12.3-5.25c1.8,4.4,4.43,7.83,7.88,10.27c3.45,2.45,7.22,3.68,11.33,3.68c4.4,0,8.07-0.95,11.02-2.85
		c2.95-1.9,4.42-4.15,4.42-6.75c0-4.7-3.6-8.15-10.8-10.35l-12.6-3.15c-14.3-3.6-21.45-10.5-21.45-20.7c0-6.7,2.72-12.07,8.17-16.13
		c5.45-4.05,12.42-6.07,20.92-6.07c6.5,0,12.38,1.55,17.63,4.65c5.25,3.1,8.93,7.25,11.03,12.45L217.5,75
		c-1.4-3.1-3.67-5.52-6.82-7.27c-3.15-1.75-6.68-2.63-10.58-2.63c-3.6,0-6.83,0.9-9.67,2.7c-2.85,1.8-4.28,4-4.28,6.6
		c0,4.2,3.95,7.2,11.85,9l11.1,2.85C223.7,89.85,231,97.2,231,108.3z"/>
	<path class="st0" d="M307.49,128.7h-13.2v-10.2h-0.6c-2.1,3.6-5.33,6.6-9.68,9c-4.35,2.4-8.88,3.6-13.57,3.6
		c-9,0-15.93-2.57-20.77-7.73c-4.85-5.15-7.28-12.47-7.28-21.97V55.2h13.8v45.3c0.3,12,6.35,18,18.15,18c5.5,0,10.1-2.22,13.8-6.67
		c3.7-4.45,5.55-9.77,5.55-15.98V55.2h13.8V128.7z"/>
	<path class="st0" d="M338.09,128.7h-13.8V55.2h13.2v10.2h0.6c2.1-3.6,5.32-6.6,9.67-9c4.35-2.4,8.67-3.6,12.98-3.6
		c5.4,0,10.15,1.25,14.25,3.75c4.1,2.5,7.1,5.95,9,10.35c6.1-9.4,14.55-14.1,25.35-14.1c8.5,0,15.05,2.6,19.65,7.8
		c4.6,5.2,6.9,12.6,6.9,22.2v45.9h-13.8V84.9c0-6.9-1.25-11.87-3.75-14.93c-2.5-3.05-6.7-4.57-12.6-4.57
		c-5.3,0-9.75,2.25-13.35,6.75s-5.4,9.8-5.4,15.9v40.65h-13.8V84.9c0-6.9-1.25-11.87-3.75-14.93c-2.5-3.05-6.7-4.57-12.6-4.57
		c-5.3,0-9.75,2.25-13.35,6.75s-5.4,9.8-5.4,15.9V128.7z"/>
	<path class="st0" d="M485.09,131.1c-10.8,0-19.7-3.7-26.7-11.1c-7-7.4-10.5-16.75-10.5-28.05c0-11.2,3.4-20.52,10.2-27.98
		c6.8-7.45,15.5-11.17,26.1-11.17c10.9,0,19.58,3.52,26.02,10.57c6.45,7.05,9.68,16.93,9.68,29.63l-0.15,1.5h-57.75
		c0.2,7.2,2.6,13,7.2,17.4c4.6,4.4,10.1,6.6,16.5,6.6c8.8,0,15.7-4.4,20.7-13.2l12.3,6c-3.3,6.2-7.88,11.05-13.73,14.55
		C499.12,129.35,492.49,131.1,485.09,131.1z M463.04,83.1h42.15c-0.4-5.1-2.48-9.32-6.23-12.67c-3.75-3.35-8.77-5.02-15.07-5.02
		c-5.2,0-9.68,1.6-13.43,4.8C466.72,73.4,464.24,77.7,463.04,83.1z"/>
	<path class="st1" d="M592.64,107.1v21.6h-13.8v-21.6h-48.75V96.6l47.55-70.5h15v68.1h13.2v12.9H592.64z M545.69,94.2h33.15V46.35
		h-0.6L545.69,94.2z"/>
	<path class="st2" d="M649.49,131.1c-8.1,0-15.1-2.2-21-6.6c-5.9-4.4-10.05-10.5-12.45-18.3l13.05-5.4c3.4,11.4,10.2,17.1,20.4,17.1
		c5.6,0,10.13-1.97,13.58-5.93c3.45-3.95,5.17-9.07,5.17-15.38V21.3h13.8v74.1c0,11.1-2.92,19.83-8.77,26.17
		C667.41,127.93,659.49,131.1,649.49,131.1z"/>
	<path class="st2" d="M693.74,91.95c0-11.3,3.55-20.65,10.65-28.05c7.2-7.4,16.25-11.1,27.15-11.1c10.9,0,19.9,3.7,27,11.1
		c7.2,7.4,10.8,16.75,10.8,28.05c0,11.4-3.6,20.75-10.8,28.05c-7.1,7.4-16.1,11.1-27,11.1c-10.9,0-19.95-3.7-27.15-11.1
		C697.29,112.6,693.74,103.25,693.74,91.95z M707.54,91.95c0,7.9,2.3,14.3,6.9,19.2c4.6,4.9,10.3,7.35,17.1,7.35
		c6.8,0,12.5-2.45,17.1-7.35c4.6-4.9,6.9-11.3,6.9-19.2c0-7.8-2.3-14.15-6.9-19.05c-4.7-5-10.4-7.5-17.1-7.5
		c-6.7,0-12.4,2.5-17.1,7.5C709.84,77.8,707.54,84.15,707.54,91.95z"/>
	<path class="st2" d="M820.04,131.1c-5.4,0-10.33-1.15-14.78-3.45c-4.45-2.3-7.88-5.35-10.27-9.15h-0.6v10.2h-13.2V21.3h13.8v33.9
		l-0.6,10.2h0.6c2.4-3.8,5.82-6.85,10.27-9.15c4.45-2.3,9.38-3.45,14.78-3.45c9.7,0,17.9,3.8,24.6,11.4
		c6.9,7.7,10.35,16.95,10.35,27.75c0,10.9-3.45,20.15-10.35,27.75C837.94,127.3,829.74,131.1,820.04,131.1z M817.79,118.5
		c6.6,0,12.15-2.5,16.65-7.5c4.5-4.9,6.75-11.25,6.75-19.05c0-7.7-2.25-14.05-6.75-19.05c-4.5-5-10.05-7.5-16.65-7.5
		c-6.7,0-12.3,2.5-16.8,7.5c-4.4,5-6.6,11.35-6.6,19.05c0,7.8,2.2,14.2,6.6,19.2C805.49,116.05,811.09,118.5,817.79,118.5z"/>
	<path class="st2" d="M923.09,108.3c0,6.4-2.8,11.8-8.4,16.2c-5.6,4.4-12.65,6.6-21.15,6.6c-7.4,0-13.9-1.93-19.5-5.77
		c-5.6-3.85-9.6-8.92-12-15.23l12.3-5.25c1.8,4.4,4.42,7.83,7.88,10.27c3.45,2.45,7.22,3.68,11.32,3.68c4.4,0,8.07-0.95,11.03-2.85
		c2.95-1.9,4.42-4.15,4.42-6.75c0-4.7-3.6-8.15-10.8-10.35l-12.6-3.15c-14.3-3.6-21.45-10.5-21.45-20.7c0-6.7,2.72-12.07,8.17-16.13
		c5.45-4.05,12.42-6.07,20.92-6.07c6.5,0,12.38,1.55,17.63,4.65c5.25,3.1,8.92,7.25,11.03,12.45l-12.3,5.1
		c-1.4-3.1-3.68-5.52-6.83-7.27c-3.15-1.75-6.67-2.63-10.58-2.63c-3.6,0-6.83,0.9-9.67,2.7c-2.85,1.8-4.28,4-4.28,6.6
		c0,4.2,3.95,7.2,11.85,9l11.1,2.85C915.79,89.85,923.09,97.2,923.09,108.3z"/>
</g>
</svg>
